# xmcd
#
# Track frame offsets:
#	150
#	15742
#	33527
#	51957
#	70422
#	83557
#	98872
#	116730
#	130580
#	145062
#	159025
#	170515
#	185015
#
# Disc length: 2698 seconds
#
# Revision: 0
# Processed by: cddbd v1.5PL3 Copyright (c) Steve Scherf et al.
# Submitted via: dBpowerAMP V4.0
#
DISCID=a90a880d
DTITLE=Collin Raye - I Think About YOu
DYEAR=1995
DGENRE=Country
TTITLE0=I Think About You
TTITLE1=Not That Different
TTITLE2=On The Verge
TTITLE3=One Boy, One Girl
TTITLE4=Sweet Miss Behavin'
TTITLE5=Heart Full Of Rain
TTITLE6=What If Jesus Comes Back Like That
TTITLE7=The Time Machine
TTITLE8=I Love Being Wrong
TTITLE9=I Volunteer
TTITLE10=Love Remains
TTITLE11=No
TTITLE12=No
EXTD=
EXTT0=
EXTT1=
EXTT2=
EXTT3=
EXTT4=
EXTT5=
EXTT6=
EXTT7=
EXTT8=
EXTT9=
EXTT10=
EXTT11=
EXTT12=
PLAYORDER=
